# xmcd
#
# Track frame offsets:
#	150
#	23834
#	48268
#	63622
#	83723
#	110966
#	130137
#	152047
#	175353
#	200071
#	222467
#	241085
#	260474
#	283870
#
# Disc length: 4079 seconds
#
# Revision: 0
# Processed by: cddbd v1.5.1PL2 Copyright (c) Steve Scherf et al.
# Submitted via: dBpowerAMP V4.0
#
DISCID=d30fed0e
DTITLE=Bo Phillips - Live @ Roosterss
DYEAR=2006
DGENRE=Country
TTITLE0=Copperhead Road (Earle)
TTITLE1=1977 (Blotto, Traditional)
TTITLE2=Dirt Road (Phillips)
TTITLE3=Feet Don't Touch The Ground (Jenkins)
TTITLE4=Friends Like You (Phillips)
TTITLE5=Folsom Prison Blues (Cash)
TTITLE6=More To Me (Phillips)
TTITLE7=Long Black Veil (Dill)
TTITLE8=Everything That Glitters (Seals)
TTITLE9=Piece on Earth (Phillips)
TTITLE10=Never Been To Spain (Axton)
TTITLE11=The First Kiss (Phillips)
TTITLE12=Steel Heart (Evans)
TTITLE13=Horses (Phillips)
EXTD=Provided by Red Dirt Radio, courtesy of Bo Phillips
EXTT0=
EXTT1=
EXTT2=
EXTT3=
EXTT4=
EXTT5=
EXTT6=
EXTT7=
EXTT8=
EXTT9=
EXTT10=
EXTT11=
EXTT12=
EXTT13=
PLAYORDER=
